<svg width="90" height="44" viewBox="0 0 90 44" fill="none" xmlns="http://www.w3.org/2000/svg">
<g clip-path="url(#clip0_0_1494)">
<rect width="90" height="44" rx="22" fill="#7C5DFA"/>
<path d="M47.35 26V16.1H49.294L53.56 22.76V16.1H55.504V26H53.56L49.294 19.34V26H47.35ZM60.6396 26.192C59.9756 26.192 59.3796 26.05 58.8516 25.766C58.3276 25.478 57.9116 25.088 57.6036 24.596C57.2956 24.104 57.1416 23.548 57.1416 22.928C57.1416 22.472 57.2276 22.046 57.3996 21.65C57.5756 21.254 57.8196 20.908 58.1316 20.612C58.4436 20.312 58.8056 20.08 59.2176 19.916C59.6296 19.748 60.0756 19.664 60.5556 19.664C61.1956 19.664 61.7556 19.798 62.2356 20.066C62.7196 20.33 63.0956 20.698 63.3636 21.17C63.6356 21.642 63.7716 22.192 63.7716 22.82C63.7716 22.872 63.7696 22.918 63.7656 22.958C63.7656 22.994 63.7596 23.064 63.7476 23.168H59.0376C59.0376 23.48 59.1076 23.752 59.2476 23.984C59.3916 24.216 59.5916 24.398 59.8476 24.53C60.1036 24.658 60.4016 24.722 60.7416 24.722C61.0616 24.722 61.3436 24.66 61.5876 24.536C61.8356 24.412 62.0736 24.214 62.3016 23.942L63.6276 24.608C63.3396 25.104 62.9316 25.492 62.4036 25.772C61.8756 26.052 61.2876 26.192 60.6396 26.192ZM59.1036 22.148H61.9596C61.9196 21.912 61.8336 21.708 61.7016 21.536C61.5736 21.364 61.4096 21.232 61.2096 21.14C61.0096 21.048 60.7836 21.002 60.5316 21.002C60.2636 21.002 60.0276 21.048 59.8236 21.14C59.6196 21.232 59.4556 21.364 59.3316 21.536C59.2076 21.708 59.1316 21.912 59.1036 22.148ZM67.1891 26L63.9611 19.856H66.0671L67.7471 23.546L69.3311 19.856H70.5851L72.1691 23.546L73.8491 19.856H75.9551L72.7271 26H71.4911L69.9551 22.454L68.4191 26H67.1891Z" fill="white"/>
<circle cx="22" cy="22" r="16" fill="white"/>
<path d="M23.3131 27.0234V23.3136H27.0229V20.7333H23.3131V17.0234H20.7328V20.7333H17.0229V23.3136H20.7328V27.0234H23.3131Z" fill="#7C5DFA"/>
</g>
<defs>
<clipPath id="clip0_0_1494">
<rect width="90" height="44" fill="white"/>
</clipPath>
</defs>
</svg>
